<svg xmlns="http://www.w3.org/2000/svg" width="16" height="16"><path style="line-height:normal;text-indent:0;text-align:start;text-decoration-line:none;text-decoration-style:solid;text-decoration-color:#000;text-transform:none;block-progression:tb;isolation:auto;mix-blend-mode:normal" d="M12 2.459v1.48c-.754.07-1.472.379-2.13.819-.98.654-1.878 1.585-2.763 2.527-.884.942-1.752 1.895-2.61 2.594-.86.699-1.687 1.123-2.497 1.123v1c1.15 0 2.18-.576 3.127-1.346.946-.77 1.833-1.754 2.709-2.687.876-.933 1.742-1.814 2.588-2.38.542-.362 1.057-.575 1.576-.64v1.594l.813-.65 1.738-1.39L12 2.46zM2 4.002v1c1.273 0 2.627 1.132 4.018 2.578l.72-.693C5.314 5.406 3.82 4.002 2 4.002zm6.174 4.404-.723.692c.833.871 1.684 1.702 2.612 2.275a4.483 4.483 0 0 0 1.937.676v1.494l.813-.65 1.738-1.39L12 9.46v1.596c-.464-.059-.927-.234-1.412-.532C9.8 10.036 8.99 9.26 8.174 8.406z" color="#000" font-family="sans-serif" font-weight="400" overflow="visible"/></svg>