<svg xmlns="http://www.w3.org/2000/svg"  width="32" height="32" fill="none"><path fill="#445CDA" fill-rule="evenodd" d="M8 32c0-.736.597-1.334 1.333-1.334h45.334a1.333 1.333 0 0 1 0 2.667H9.333A1.333 1.333 0 0 1 8 32Z" clip-rule="evenodd"/><path fill="#2B3151" fill-rule="evenodd" d="M14.667 10.667a4 4 0 0 0-4 4V20A1.333 1.333 0 0 1 8 20v-5.333A6.667 6.667 0 0 1 14.667 8H20a1.333 1.333 0 1 1 0 2.667h-5.333zm0 42.666a4 4 0 0 1-4-4V44A1.333 1.333 0 0 0 8 44v5.333A6.667 6.667 0 0 0 14.667 56H20a1.333 1.333 0 0 0 0-2.667h-5.333zm34.666-42.666a4 4 0 0 1 4 4V20A1.333 1.333 0 0 0 56 20v-5.333A6.667 6.667 0 0 0 49.333 8H44a1.333 1.333 0 1 0 0 2.667h5.333zm0 42.666a4 4 0 0 0 4-4V44A1.333 1.333 0 0 1 56 44v5.333A6.667 6.667 0 0 1 49.333 56H44a1.333 1.333 0 0 1 0-2.667h5.333z" clip-rule="evenodd"/></svg>