<svg xmlns="http://www.w3.org/2000/svg"  width="32" height="32" viewBox="0 0 60 60"><path d="m50.625 12.073-42 17a1 1 0 0 0 .107 1.89l12.737 3.539 8.127 13.027a1.002 1.002 0 0 0 1.83-.338l1.777-9.123 11.801 4.244c.273.096.577.072.831-.072a.997.997 0 0 0 .488-.675l5.657-28.37a.999.999 0 0 0-1.355-1.122zM29.948 44.315l-6.424-10.297 16.2-8.726-8.081 10.844-.004.008c-.021.029-.028.065-.046.096a1 1 0 0 0-.121.282c-.002.007-.008.013-.01.02l-1.514 7.773zm14.64-4.279L34.054 36.25l9.97-13.379a1 1 0 0 0-1.275-1.478L21.991 32.57l-9.89-2.748 37.556-15.2-5.068 25.413z"/></svg>