<svg xmlns="http://www.w3.org/2000/svg" fill-rule="evenodd" stroke-linejoin="round" stroke-miterlimit="2" clip-rule="evenodd" viewBox="0 0 512 512"><path d="M350.84 377.27c0-3.3.01-6.61.01-9.91.05-8.4 7.16-16.07 16.06-16.24 11.39-.07 22.79-.07 34.18 0 8.37.16 15.87 7.29 16.06 16.05.06 11.33 0 22.67 0 34-.05 8.39-7.21 16.08-16.05 16.24-11.34.1-22.67.01-34.01.01-8.28-.07-15.78-6.99-16.22-15.43-.01-.21-.02-.41-.02-.62-.02-3.37-.02-6.74-.03-10.1H96c-2.08-.37-2.8-.22-4.5-1.64-3.16-2.66-3.14-8.1 0-10.73 1.7-1.42 2.42-1.27 4.5-1.63h254.84Zm16.3-12.15c-1.18 0-2.24.97-2.29 2.16-.31 11.28 0 22.57 0 33.85 0 1.18.99 2.23 2.17 2.28 11.27.35 22.56.01 33.83.01 1.22 0 2.27-1.03 2.3-2.25.06-11.29.31-22.59 0-33.88-.06-1.14-1.04-2.12-2.18-2.17-11.27-.37-22.56 0-33.83 0ZM161.16 263.27c0 3.3-.01 6.6-.01 9.9-.05 8.42-7.24 16.08-16.06 16.24-11.33.07-22.66.01-33.99.01-8.29-.05-15.91-7.09-16.24-15.64 0-.1-.01-.32-.01-.41-.06-11.34 0-22.67 0-34.01.05-8.44 7.24-16.08 16.06-16.24 11.39-.07 22.79-.07 34.18 0 8.36.16 15.87 7.29 16.06 16.05.02 3.36.02 6.73.03 10.1H416c.8.14 1.6.28 2.39.42 1.84 1.06 2.56 1.16 3.67 3.08 1.61 2.77.94 6.76-1.56 8.86-1.7 1.42-2.42 1.27-4.5 1.64H161.16Zm-50.02-26.15c-1.22 0-2.26 1.03-2.29 2.24-.06 11.29-.31 22.59 0 33.88.06 1.17 1.08 2.15 2.23 2.18 11.26.06 22.52 0 33.78 0 1.24 0 2.29-1.06 2.29-2.29V239.4c0-1.2-1.04-2.26-2.23-2.28-11.26-.07-22.52 0-33.78 0Zm239.7-115.85c0-3.3.01-6.61.01-9.91.05-8.42 7.24-16.08 16.06-16.24 11.39-.07 22.79-.07 34.18 0 8.39.16 15.87 7.44 16.06 16.05.06 11.33 0 22.67 0 34-.05 8.41-7.24 16.08-16.06 16.24-11.33.07-22.66.01-33.99.01-8.21-.05-15.79-6.97-16.23-15.43-.01-.21-.02-.42-.02-.62-.02-3.37-.02-6.74-.03-10.1H96c-2.08-.37-2.8-.22-4.5-1.64-3.06-2.57-3.2-8.04 0-10.73 1.7-1.42 2.42-1.27 4.5-1.63h254.84Zm16.3-12.15c-1.22 0-2.29 1.01-2.29 2.28v33.73c0 1.2 1.04 2.26 2.23 2.29 11.26.06 22.52 0 33.78 0 1.21 0 2.26-1.03 2.29-2.25.06-11.29.31-22.59 0-33.88-.06-1.16-1.07-2.15-2.23-2.17-11.26-.07-22.52 0-33.78 0Z"/></svg>