<?xml version="1.0" encoding="UTF-8"?>
<svg xmlns="http://www.w3.org/2000/svg" xmlns:xlink="http://www.w3.org/1999/xlink" width="24px" height="px" viewBox="0 0 24 24" version="1.1">
<g id="surface1">
<path style=" stroke:none;fill-rule:nonzero;fill:rgb(0%,0%,0%);fill-opacity:1;" d="M 20.859375 7.957031 L 17.660156 11.199219 C 17.589844 11.273438 17.472656 11.273438 17.398438 11.203125 C 17.328125 11.128906 17.324219 11.011719 17.398438 10.941406 L 20.46875 7.832031 L 15.601562 3.027344 L 11.375 7.308594 C 11.304688 7.378906 11.1875 7.382812 11.113281 7.308594 C 11.042969 7.238281 11.039062 7.121094 11.113281 7.046875 L 15.46875 2.636719 C 15.539062 2.5625 15.65625 2.5625 15.730469 2.632812 L 20.859375 7.695312 C 20.933594 7.769531 20.933594 7.886719 20.859375 7.957031 Z M 20.859375 7.957031 "/>
<path style=" stroke:none;fill-rule:nonzero;fill:rgb(0%,0%,0%);fill-opacity:1;" d="M 17.449219 6.285156 L 16.769531 6.972656 C 16.699219 7.046875 16.582031 7.046875 16.507812 6.976562 C 16.433594 6.902344 16.433594 6.785156 16.503906 6.714844 L 17.183594 6.027344 C 17.257812 5.953125 17.375 5.953125 17.445312 6.023438 C 17.519531 6.097656 17.519531 6.214844 17.449219 6.285156 Z M 17.449219 6.285156 "/>
<path style=" stroke:none;fill-rule:nonzero;fill:rgb(0%,0%,0%);fill-opacity:1;" d="M 15.9375 8.675781 C 15.632812 8.984375 15.132812 8.988281 14.824219 8.679688 C 14.515625 8.375 14.511719 7.875 14.816406 7.566406 C 15.121094 7.257812 15.621094 7.253906 15.933594 7.558594 C 16.242188 7.863281 16.246094 8.363281 15.9375 8.675781 Z M 15.082031 7.824219 C 14.917969 7.988281 14.917969 8.253906 15.082031 8.417969 C 15.246094 8.578125 15.511719 8.578125 15.675781 8.414062 C 15.835938 8.25 15.835938 7.984375 15.671875 7.820312 C 15.507812 7.660156 15.242188 7.660156 15.082031 7.824219 Z M 15.082031 7.824219 "/>
<path style=" stroke:none;fill-rule:nonzero;fill:rgb(0%,0%,0%);fill-opacity:1;" d="M 8.628906 21.910156 L 7.53125 23.019531 L 6.40625 21.910156 L 5.878906 21.910156 L 7.40625 23.414062 C 7.476562 23.488281 7.59375 23.484375 7.667969 23.414062 L 9.148438 21.910156 Z M 8.628906 21.910156 "/>
<path style=" stroke:none;fill-rule:nonzero;fill:rgb(0%,0%,0%);fill-opacity:1;" d="M 1.757812 17.320312 L 0.578125 16.15625 L 1.757812 14.964844 L 1.757812 14.4375 L 0.183594 16.027344 C 0.113281 16.101562 0.113281 16.21875 0.1875 16.289062 L 1.757812 17.839844 Z M 1.757812 17.320312 "/>
<path style=" stroke:none;fill-rule:nonzero;fill:rgb(0%,0%,0%);fill-opacity:1;" d="M 8.195312 11.398438 C 8.3125 10.734375 8.621094 10.097656 9.128906 9.585938 C 10.453125 8.242188 12.621094 8.230469 13.960938 9.554688 C 14.488281 10.070312 14.804688 10.71875 14.925781 11.398438 L 15.296875 11.398438 C 15.175781 10.625 14.820312 9.882812 14.222656 9.289062 C 12.734375 7.824219 10.332031 7.839844 8.863281 9.324219 C 8.285156 9.910156 7.941406 10.640625 7.824219 11.398438 Z M 8.195312 11.398438 "/>
<path style=" stroke:none;fill-rule:nonzero;fill:rgb(0%,0%,0%);fill-opacity:1;" d="M 10.007812 10.761719 C 9.867188 10.957031 9.785156 11.175781 9.761719 11.398438 L 10.132812 11.398438 C 10.167969 11.195312 10.269531 10.988281 10.433594 10.824219 C 10.710938 10.542969 11.101562 10.433594 11.410156 10.546875 C 11.507812 10.582031 11.613281 10.535156 11.648438 10.4375 C 11.683594 10.34375 11.636719 10.238281 11.539062 10.199219 C 11.125 10.046875 10.632812 10.160156 10.257812 10.488281 L 10.015625 10.25 C 9.945312 10.179688 9.828125 10.179688 9.753906 10.253906 C 9.683594 10.324219 9.683594 10.441406 9.757812 10.515625 Z M 10.007812 10.761719 "/>
<path style=" stroke:none;fill-rule:nonzero;fill:rgb(0%,0%,0%);fill-opacity:1;" d="M 22.933594 7.683594 L 15.71875 0.558594 C 15.644531 0.488281 15.527344 0.488281 15.453125 0.558594 L 4.757812 11.398438 L 5.277344 11.398438 L 15.589844 0.953125 L 22.542969 7.816406 L 19.007812 11.398438 L 19.527344 11.398438 L 22.9375 7.945312 C 23.007812 7.871094 23.007812 7.753906 22.933594 7.683594 Z M 22.933594 7.683594 "/>
<path style=" stroke:none;fill-rule:nonzero;fill:rgb(0%,0%,0%);fill-opacity:1;" d="M 23.65625 21.910156 L 1.921875 21.910156 C 1.820312 21.910156 1.734375 21.828125 1.734375 21.722656 L 1.734375 11.582031 C 1.734375 11.480469 1.820312 11.398438 1.921875 11.398438 L 23.65625 11.398438 C 23.757812 11.398438 23.839844 11.480469 23.839844 11.582031 L 23.839844 21.722656 C 23.839844 21.828125 23.757812 21.910156 23.65625 21.910156 Z M 2.105469 21.539062 L 23.472656 21.539062 L 23.472656 11.769531 L 2.105469 11.769531 Z M 2.105469 21.539062 "/>
<path style=" stroke:none;fill-rule:nonzero;fill:rgb(0%,0%,0%);fill-opacity:1;" d="M 12.789062 20.441406 C 10.699219 20.441406 9 18.742188 9 16.652344 C 9 14.5625 10.699219 12.863281 12.789062 12.863281 C 14.878906 12.863281 16.578125 14.5625 16.578125 16.652344 C 16.578125 18.742188 14.878906 20.441406 12.789062 20.441406 Z M 12.789062 13.234375 C 10.902344 13.234375 9.371094 14.769531 9.371094 16.652344 C 9.371094 18.539062 10.902344 20.070312 12.789062 20.070312 C 14.671875 20.070312 16.207031 18.539062 16.207031 16.652344 C 16.207031 14.769531 14.675781 13.234375 12.789062 13.234375 Z M 12.789062 13.234375 "/>
<path style=" stroke:none;fill-rule:nonzero;fill:rgb(0%,0%,0%);fill-opacity:1;" d="M 12.753906 18.644531 C 12.207031 18.644531 11.726562 18.359375 11.53125 17.921875 C 11.488281 17.828125 11.53125 17.71875 11.625 17.675781 C 11.71875 17.636719 11.828125 17.675781 11.871094 17.769531 C 12.003906 18.070312 12.359375 18.273438 12.753906 18.273438 C 13.148438 18.273438 13.503906 18.070312 13.636719 17.769531 C 13.703125 17.613281 13.707031 17.480469 13.652344 17.363281 C 13.554688 17.160156 13.253906 16.984375 12.734375 16.832031 C 12.300781 16.703125 11.78125 16.5 11.589844 16.101562 C 11.488281 15.890625 11.492188 15.652344 11.597656 15.390625 C 11.796875 14.945312 12.277344 14.664062 12.824219 14.664062 C 13.371094 14.664062 13.847656 14.945312 14.046875 15.382812 C 14.085938 15.476562 14.046875 15.585938 13.953125 15.628906 C 13.859375 15.671875 13.75 15.628906 13.707031 15.535156 C 13.574219 15.234375 13.21875 15.035156 12.824219 15.035156 C 12.429688 15.035156 12.074219 15.234375 11.9375 15.535156 C 11.875 15.691406 11.867188 15.828125 11.921875 15.941406 C 12.019531 16.144531 12.320312 16.320312 12.839844 16.476562 C 13.273438 16.605469 13.796875 16.804688 13.988281 17.203125 C 14.089844 17.417969 14.085938 17.65625 13.980469 17.917969 C 13.78125 18.359375 13.300781 18.644531 12.753906 18.644531 Z M 12.753906 18.644531 "/>
<path style=" stroke:none;fill-rule:nonzero;fill:rgb(0%,0%,0%);fill-opacity:1;" d="M 12.753906 19.15625 C 12.652344 19.15625 12.570312 19.074219 12.570312 18.972656 L 12.570312 18.457031 C 12.570312 18.355469 12.652344 18.273438 12.753906 18.273438 C 12.855469 18.273438 12.9375 18.355469 12.9375 18.457031 L 12.9375 18.972656 C 12.9375 19.074219 12.855469 19.15625 12.753906 19.15625 Z M 12.753906 19.15625 "/>
<path style=" stroke:none;fill-rule:nonzero;fill:rgb(0%,0%,0%);fill-opacity:1;" d="M 12.753906 15.035156 C 12.652344 15.035156 12.570312 14.953125 12.570312 14.847656 L 12.570312 14.335938 C 12.570312 14.234375 12.652344 14.148438 12.753906 14.148438 C 12.855469 14.148438 12.9375 14.234375 12.9375 14.335938 L 12.9375 14.847656 C 12.9375 14.953125 12.855469 15.035156 12.753906 15.035156 Z M 12.753906 15.035156 "/>
<path style=" stroke:none;fill-rule:nonzero;fill:rgb(0%,0%,0%);fill-opacity:1;" d="M 9.589844 20.441406 L 3.386719 20.441406 C 3.285156 20.441406 3.203125 20.359375 3.203125 20.257812 L 3.203125 13.050781 C 3.203125 12.949219 3.285156 12.863281 3.386719 12.863281 L 7.945312 12.863281 C 8.046875 12.863281 8.128906 12.949219 8.128906 13.050781 C 8.128906 13.152344 8.046875 13.234375 7.945312 13.234375 L 3.574219 13.234375 L 3.574219 20.070312 L 9.589844 20.070312 C 9.691406 20.070312 9.773438 20.15625 9.773438 20.257812 C 9.773438 20.359375 9.691406 20.441406 9.589844 20.441406 Z M 9.589844 20.441406 "/>
<path style=" stroke:none;fill-rule:nonzero;fill:rgb(0%,0%,0%);fill-opacity:1;" d="M 9.589844 13.234375 L 8.988281 13.234375 C 8.886719 13.234375 8.804688 13.152344 8.804688 13.050781 C 8.804688 12.949219 8.886719 12.863281 8.988281 12.863281 L 9.589844 12.863281 C 9.691406 12.863281 9.773438 12.949219 9.773438 13.050781 C 9.773438 13.152344 9.691406 13.234375 9.589844 13.234375 Z M 9.589844 13.234375 "/>
<path style=" stroke:none;fill-rule:nonzero;fill:rgb(0%,0%,0%);fill-opacity:1;" d="M 22.1875 20.441406 L 17.632812 20.441406 C 17.53125 20.441406 17.449219 20.359375 17.449219 20.257812 C 17.449219 20.15625 17.53125 20.070312 17.632812 20.070312 L 22.003906 20.070312 L 22.003906 13.234375 L 15.988281 13.234375 C 15.886719 13.234375 15.804688 13.152344 15.804688 13.050781 C 15.804688 12.949219 15.886719 12.863281 15.988281 12.863281 L 22.1875 12.863281 C 22.292969 12.863281 22.375 12.949219 22.375 13.050781 L 22.375 20.257812 C 22.375 20.359375 22.292969 20.441406 22.1875 20.441406 Z M 22.1875 20.441406 "/>
<path style=" stroke:none;fill-rule:nonzero;fill:rgb(0%,0%,0%);fill-opacity:1;" d="M 16.585938 20.441406 L 15.988281 20.441406 C 15.886719 20.441406 15.804688 20.359375 15.804688 20.257812 C 15.804688 20.15625 15.886719 20.070312 15.988281 20.070312 L 16.585938 20.070312 C 16.691406 20.070312 16.773438 20.15625 16.773438 20.257812 C 16.773438 20.359375 16.691406 20.441406 16.585938 20.441406 Z M 16.585938 20.441406 "/>
<path style=" stroke:none;fill-rule:nonzero;fill:rgb(0%,0%,0%);fill-opacity:1;" d="M 20.980469 16.839844 L 20.015625 16.839844 C 19.914062 16.839844 19.828125 16.753906 19.828125 16.652344 C 19.828125 16.550781 19.914062 16.46875 20.015625 16.46875 L 20.980469 16.46875 C 21.082031 16.46875 21.167969 16.550781 21.167969 16.652344 C 21.167969 16.753906 21.082031 16.839844 20.980469 16.839844 Z M 20.980469 16.839844 "/>
<path style=" stroke:none;fill-rule:nonzero;fill:rgb(0%,0%,0%);fill-opacity:1;" d="M 5.5625 16.839844 L 4.59375 16.839844 C 4.492188 16.839844 4.410156 16.753906 4.410156 16.652344 C 4.410156 16.550781 4.492188 16.46875 4.59375 16.46875 L 5.5625 16.46875 C 5.664062 16.46875 5.746094 16.550781 5.746094 16.652344 C 5.746094 16.753906 5.664062 16.839844 5.5625 16.839844 Z M 5.5625 16.839844 "/>
<path style=" stroke:none;fill-rule:nonzero;fill:rgb(0%,0%,0%);fill-opacity:1;" d="M 7.152344 17.441406 C 6.71875 17.441406 6.363281 17.089844 6.363281 16.652344 C 6.363281 16.21875 6.71875 15.863281 7.152344 15.863281 C 7.589844 15.863281 7.941406 16.21875 7.941406 16.652344 C 7.941406 17.089844 7.589844 17.441406 7.152344 17.441406 Z M 7.152344 16.234375 C 6.921875 16.234375 6.734375 16.421875 6.734375 16.652344 C 6.734375 16.882812 6.921875 17.070312 7.152344 17.070312 C 7.382812 17.070312 7.570312 16.882812 7.570312 16.652344 C 7.570312 16.421875 7.382812 16.234375 7.152344 16.234375 Z M 7.152344 16.234375 "/>
<path style=" stroke:none;fill-rule:nonzero;fill:rgb(0%,0%,0%);fill-opacity:1;" d="M 18.222656 17.441406 C 17.789062 17.441406 17.433594 17.089844 17.433594 16.652344 C 17.433594 16.21875 17.789062 15.863281 18.222656 15.863281 C 18.65625 15.863281 19.011719 16.21875 19.011719 16.652344 C 19.011719 17.089844 18.65625 17.441406 18.222656 17.441406 Z M 18.222656 16.234375 C 17.992188 16.234375 17.804688 16.421875 17.804688 16.652344 C 17.804688 16.882812 17.992188 17.070312 18.222656 17.070312 C 18.453125 17.070312 18.640625 16.882812 18.640625 16.652344 C 18.640625 16.421875 18.453125 16.234375 18.222656 16.234375 Z M 18.222656 16.234375 "/>
</g>
</svg>
